<svg width="96" height="96" viewBox="0 0 96 96" fill="none" xmlns="http://www.w3.org/2000/svg">
<g clip-path="url(#clip0_1_12)">
<path d="M96 0H0V96H96V0Z" fill="white"/>
<path fill-rule="evenodd" clip-rule="evenodd" d="M4 29C4 26.7909 5.79086 25 8 25H88C90.2091 25 92 26.7909 92 29V88C92 90.2091 90.2091 92 88 92H8C5.79086 92 4 90.2091 4 88V29ZM12 33V84H84V33H12Z" fill="black"/>
<path d="M88 15H8V8H88V15Z" stroke="black" stroke-width="8" stroke-linejoin="round"/>
<path fill-rule="evenodd" clip-rule="evenodd" d="M40.8878 76.2095L40.8971 76.2145L40.9065 76.2193C42.8799 77.2233 45.0366 77.72 47.36 77.72C49.8909 77.72 52.1761 77.23 54.1912 76.2225L54.1972 76.2194C56.2566 75.1723 57.8721 73.6451 59.0254 71.653C60.1846 69.6509 60.744 67.3114 60.744 64.672C60.744 62.5641 60.2594 60.5958 59.2859 58.7839C58.3385 56.9288 56.9654 55.4509 55.1815 54.3652C53.3765 53.2343 51.3187 52.68 49.04 52.68C48.1564 52.68 47.3274 52.7633 46.5589 52.9376C48.2474 50.0819 50.3914 46.6902 52.9938 42.7601L53.5782 41.8776L47.2067 38.1609L46.6969 39.0015C43.0474 45.0201 40.3819 49.5636 38.7068 52.6239C37.0373 55.6738 35.9099 58.0799 35.3667 59.8099C34.8241 61.5066 34.552 63.2405 34.552 65.008C34.552 67.524 35.0974 69.78 36.2198 71.7441L36.225 71.7534L36.2305 71.7625C37.3785 73.6758 38.935 75.1633 40.8878 76.2095ZM52.16 42.208C49.2402 46.6175 46.889 50.3613 45.1066 53.4393C45.1154 53.4241 45.1242 53.4089 45.133 53.3937C46.7982 50.5211 48.9566 47.0711 51.6081 43.0438C51.7898 42.7679 51.9737 42.4893 52.16 42.208ZM53.224 65.152C53.224 66.9583 52.7004 68.3505 51.7139 69.417L51.7047 69.427C50.7752 70.4598 49.4816 71.016 47.696 71.016C46.0628 71.016 44.7385 70.4741 43.6556 69.3934C42.6101 68.3189 42.072 66.9631 42.072 65.248C42.072 63.3042 42.6165 61.8824 43.6077 60.8625C44.6375 59.8352 46.0139 59.288 47.84 59.288C49.4458 59.288 50.6953 59.8161 51.6745 60.8483L51.6836 60.8578L51.6929 60.8671C52.6803 61.8545 53.224 63.2409 53.224 65.152Z" fill="black"/>
</g>
<defs>
<clipPath id="clip0_1_12">
<rect width="96" height="96" fill="white"/>
</clipPath>
</defs>
</svg>
