<svg version="1.0" xmlns="http://www.w3.org/2000/svg" xmlns:xlink="http://www.w3.org/1999/xlink" x="0px" y="0px" viewBox="0 0 257.2 278.5" style="enable-background:new 0 0 257.2 278.5;" xml:space="preserve">
	<g>
		<path d="M85.4,109.6c6.5-0.5,13.1-0.7,19.5-1.9c1.2-0.2,2.2-4.4,2.5-6.8c1.7-14.5,3.1-35,4.5-49.5c0.4-4-3.8-6.3-7.5-4.3 c-6.8,3.5-29.5-0.3-32.4-6.4c-2-4.3-2.8-10-1.7-14.5c0.7-2.8,5.8-6.1,9.2-6.4c8.1-0.7,16.4,0.5,24.6,0.3 c6.6-0.2,13.1-1.6,19.7-1.9c9.6-0.3,16.6,8.8,15,18.2c-1.5,8.9-1.9,18-3.1,27c-1.4,10.7-3,27.4-4.8,38.1c-0.7,4,3,6.6,8.8,6.2 c7.1-0.5,14.3-0.7,21.5-0.8c13.1-0.1,26.3,0.1,39.4,0.1c6.1,0,12.2-0.3,18.3-0.3c7.2-0.1,12.9,8.8,10.7,15.7 c-1.7,5.3-2.5,10.9-3.7,16.4c-2.6,12.3-5.3,24.5-7.7,36.8c-1.6,8.1-2.7,16.2-4.4,24.3c-0.8,3.8-3.3,18.5-3.8,22 c-1.7,11.7-3.6,12.4-5.4,24.1c-0.2,1-0.1,9.3-0.9,10.1c-1.4,1.3-2.7,3.6-4.2,3.7c-2.1,0.2-4.8-0.7-6.4-2c-3.5-3-5.3-5-6.2-6.7 c-1.7-3.4,1.8-33.1,3.7-42.9c1.2-6.5-1.9-6.2-6.3-6.3c-15.6-0.2-33.1-0.9-48.7-0.9c-1.8,0-5,3.1-5.2,5.1c-1,7.2,0.3,14.9,0.3,21.9 c0,7,1.9,22.8,0.1,27.3c-2.1,5.1-20.7,2.6-21,0.5c-1.3-9.4-2.2-19-2.8-28.5c-0.7-11.2-0.8-22.5-1.5-33.7c-0.5-8.9-2-17.8-2-26.8 c0-10.5,1.1-21.1,1.7-31.6c0.1-1.4-0.4-4.1-0.7-4.1c-3.1-0.2-6.1-0.1-9.2,0.2c-9.1,0.8-18.2,1.6-27.2,2.5 c-6.8,0.7-17.6,1.3-28.3,2.2c-8.2,0.7-12.5-3.5-13-10.7c-0.5-6.9,4.7-12.1,12.7-13C58,110,85.3,109.4,85.4,109.6z M128.7,164.5 c0,2.8,0.2,5,0,7.1c-0.5,4.9,0.7,7.3,6.6,7.6c17.7,0.9,32.5,1,50.1,3.3c5.8,0.8,9.2,3.5,10.2-5.3c1.7-14.9,5-29.6,7.3-44.5 c0.1-0.9-2.2-3.2-3.5-3.2c-3.5-0.1-7.1,1-10.6,1c-18.3,0.3-34.6,0.2-52.9,0.6c-2,0-5.6,2.1-5.8,3.5 C128.9,144.5,129.4,155.3,128.7,164.5z"/>
	</g>
</svg>
