<?xml version="1.0" encoding="utf-8"?>
<!-- Generator: Adobe Illustrator 26.0.3, SVG Export Plug-In . SVG Version: 6.00 Build 0)  -->
<svg version="1.1" id="pen" xmlns="http://www.w3.org/2000/svg" xmlns:xlink="http://www.w3.org/1999/xlink" x="0px" y="0px"
	 viewBox="0 0 40 340" style="enable-background:new 0 0 40 340;" xml:space="preserve">
<style type="text/css">
	.st0{display:none;fill:#231F20;}
	.st1{fill:#231F20;}
</style>
<path id="vulpen" class="st0" d="M36,136.9c-0.3-0.6-0.7-1-1.3-1.4c-0.2-0.1-0.3-0.2-0.4-0.4c-0.1-0.2-0.1-0.4-0.2-0.6L31.8,19.8
	l-0.5-7.6c-0.1-2.3-1.1-4.5-2.8-6c-1.6-1.7-3.8-2.6-6.1-2.6h-0.2H22c-1.3,0-2.5,0.3-3.7,0.8l0,0c-1.5,0.7-2.8,1.7-3.7,3.1
	c-0.9,1.3-1.5,2.9-1.6,4.6l-0.6,7.5l-4,114.8c0,0.2-0.1,0.4-0.2,0.5c-0.1,0.2-0.2,0.3-0.4,0.4c-0.5,0.3-1,0.8-1.3,1.4
	c-0.3,0.6-0.5,1.2-0.5,1.8c0,0.2-0.6,92.7-0.6,92.7c0,0.1,0,0.2,0.1,0.3s0.2,0.1,0.3,0.1c0.3,0,0.6,0.1,0.8,0.3
	c0.2,0.2,0.4,0.5,0.4,0.8l0.8,13c0,0.1,0,0.2,0.1,0.2c0.1,0.1,0.1,0.1,0.2,0.1c0.1,0,0.1,0,0.2,0l0.1,0.1c0,0,0,0.1,0.1,0.1
	c0,0.1,0,0.1,0,0.2c-0.1,0.1-0.1,0.3-0.1,0.4c0,0.2,0.1,0.3,0.3,0.5c0.1,0.1,0.3,0.2,0.5,0.2l0.5,22.7l0.2,9.9
	c0,0.7-0.1,1.4-0.4,2.1c-0.2,0.4-0.2,0.8-0.3,1.1c0,0.4,0.1,0.8,0.2,1.2l0.6,1.5c0.1,0.3,0.3,0.5,0.6,0.7c0.2,0.2,0.5,0.3,0.8,0.3
	h3.2c0,0-0.1,2-0.2,12.3c-0.1,10.3-4,14.3-2.2,16.4c3.1,5,4.9,9.6,6,13.3c0.7,2.4,1.2,4.8,1.5,7.2v0.1c0,0,0,0,0.1,0.1H20h0.1
	c0,0,0.1,0,0.1-0.1v-0.1c0.3-2.4,0.8-4.8,1.6-7.2c1.5-4.6,3.6-9.1,6.2-13.2c1.9-2.1-2-6.1-2-16.4c0.1-10.3,0-12.3,0-12.3h3.2
	c0.3,0,0.6-0.1,0.8-0.3c0.3-0.2,0.4-0.4,0.6-0.7l0.6-1.4c0.2-0.4,0.2-0.8,0.2-1.2c0-0.4-0.1-0.8-0.2-1.2c-0.3-0.7-0.4-1.4-0.4-2.1
	l0.3-9.9l0.8-22.7c0.1,0,0.2,0,0.3-0.1c0.1,0,0.2-0.1,0.2-0.2c0.1-0.1,0.1-0.2,0.2-0.3c0-0.1,0.1-0.2,0-0.3c0-0.1,0-0.2-0.1-0.3
	c0-0.1,0-0.2,0-0.2c0-0.1,0.1-0.1,0.2-0.2h0.1h0.1c0.1,0,0.1-0.1,0.1-0.1c0-0.1,0.1-0.1,0.1-0.2l1-13c0-0.3,0.2-0.6,0.4-0.8
	s0.5-0.3,0.8-0.3c0.1,0,0.1,0,0.2,0c0.1,0,0.1-0.1,0.2-0.1c0-0.1,0.1-0.1,0.1-0.2l0.7-92.7C36.5,138.1,36.3,137.5,36,136.9z"/>
<path id="balpen" class="st1" d="M35,137.1c0-0.6-0.2-1.3-0.5-1.8c-0.3-0.6-0.7-1-1.3-1.4c-0.2-0.1-0.3-0.2-0.4-0.4
	c-0.1-0.2-0.1-0.4-0.2-0.5L29.5,19.5l-1-13.9c0-0.1-0.1-0.3-0.2-0.4C28.1,5.1,28,5,28,4.9c-1.1-0.4-4.1-1.3-8.1-1.3
	c-4.1,0-7,0.9-8.1,1.3l0,0l0,0C11.6,5,11.6,5,11.4,5.2c-0.2,0.1-0.2,0.2-0.2,0.4l-1,13.9L7.2,133c0,0.2-0.1,0.4-0.2,0.5
	c-0.1,0.2-0.2,0.3-0.4,0.4c-0.5,0.3-1,0.8-1.3,1.4c-0.3,0.6-0.5,1.2-0.5,1.8c0,0.2,0.1,91.6,0.1,91.6c0,0.1,0,0.2,0.1,0.3
	s0.2,0.1,0.3,0.1c0.3,0,0.6,0.1,0.8,0.3c0.2,0.2,0.4,0.5,0.4,0.8l0.9,12.9c0,0.1,0,0.2,0.1,0.2c0.1,0.1,0.1,0.1,0.2,0.1
	c0.1,0,0.1,0,0.2,0l0.1,0.1c0,0,0,0.1,0.1,0.1c0,0.1,0,0.1,0,0.2c-0.1,0.1-0.1,0.3-0.1,0.4c0,0.2,0.1,0.3,0.3,0.5
	c0.1,0.1,0.3,0.2,0.5,0.2l0.6,22.5l0.4,3.6l0,0c0.1,0,0.1,0,0.2,0.1c0.1,0,0.1,0.1,0.1,0.2s0,0.1,0,0.2s-0.1,0.1-0.1,0.1H10l0.4,3.9
	c0.1,0,0.1,0,0.2,0.1c0.1,0,0.1,0.1,0.1,0.2s0,0.1,0,0.2s-0.1,0.1-0.1,0.1s0,0-0.1,0l0.4,3.9c0.1,0,0.1,0,0.2,0.1
	c0.1,0,0.1,0.1,0.1,0.2s0,0.1-0.1,0.2c0,0.1-0.1,0.1-0.2,0.1l4.7,44.3c0,0.2,0.1,0.4,0.2,0.5s0.3,0.2,0.5,0.2H17v1.9
	c0,0.3,0,0.5,0.1,0.8l1.7,5.5c0.1,0.3,0.3,0.5,0.6,0.7c0.3,0.2,0.5,0.2,0.8,0.2c0.2,0,0.4,0,0.6-0.1c0.3-0.1,0.6-0.4,0.8-0.8
	l1.7-5.5c0.1-0.3,0.1-0.5,0.1-0.8v-1.9h0.7c0.1,0,0.2,0,0.3-0.1c0.1-0.1,0.2-0.1,0.3-0.2c0.1-0.1,0.1-0.2,0.1-0.4l4.6-44.3
	c-0.1,0-0.1,0-0.2-0.1c0,0-0.1-0.1-0.1-0.2s0-0.1,0-0.2s0.1-0.1,0.1-0.1h0.1l0.4-3.9c-0.1,0-0.1,0-0.2-0.1c0,0-0.1-0.1-0.1-0.2
	s0-0.1,0-0.2s0.1-0.1,0.1-0.1h0.1l0.4-3.9c-0.1,0-0.1,0-0.2-0.1c0-0.1-0.1-0.1-0.1-0.2s0-0.1,0.1-0.2s0.1-0.1,0.2-0.1l0,0l0.4-3.6
	l0.6-22.5h0.1c0.2-0.1,0.6-0.3,0.7-0.6c0-0.1,0-0.3-0.1-0.4v-0.1v-0.1c0,0,0-0.1,0.1-0.1l0.1-0.1h0.1H32c0.1,0,0.1-0.1,0.1-0.1
	c0-0.1,0.1-0.1,0.1-0.2l0.8-12.9c0-0.2,0.1-0.4,0.2-0.6s0.3-0.3,0.5-0.4c0.2-0.1,0.3-0.1,0.5-0.1c0.1,0,0.1,0,0.1,0
	c0.1,0,0.1-0.1,0.2-0.1c0-0.1,0.1-0.1,0.1-0.2C35,228.8,35,137.3,35,137.1z"/>
</svg>
