<svg version="1.1" xmlns="http://www.w3.org/2000/svg" xmlns:xlink="http://www.w3.org/1999/xlink" x="0px" y="0px" viewBox="0 0 639 149.2" style="enable-background:new 0 0 639 149.2;" xml:space="preserve">
	<g>
		<path class="st0" d="M6,0h121.8l-73,120.1h70.7v29H0L72.8,29H6V0z"/>
		<path class="st0" d="M517.2,0H639l-73,120.1h70.7v29H511.3L584.1,29h-66.9V0z"/>
		<path class="st0" d="M153.2,0.4v148.6v0.1h29h276.9h29v-0.1V0.4H153.2z M459.1,120.1H182.2V29.4h276.9V120.1z"/>
	</g>
	<g>
		<path class="st0" d="M222.9,67.9h-4.6v-8.3h4.6v-2c0-9.8,5.6-14.4,16.8-14.1V52c-4.9-0.1-6.6,1.4-6.6,5.9v1.7h7v8.3h-7v31.7h-10.3 V67.9z"/>
		<path class="st0" d="M264.5,100.3c-11.6,0-20.3-8.1-20.3-20.7c0-12.7,9-20.7,20.6-20.7c11.6,0,20.6,8,20.6,20.7 C285.4,92.2,276.1,100.3,264.5,100.3z M264.5,91.5c5.4,0,10.5-3.9,10.5-11.9c0-8-5-11.9-10.3-11.9s-10.2,3.8-10.2,11.9 C254.5,87.6,259.1,91.5,264.5,91.5z"/>
		<path class="st0" d="M320.9,77.5c0-6.4-3.5-9.9-8.9-9.9c-5.5,0-9,3.5-9,9.9v22.1h-10.1v-40H303v5c2.6-3.4,6.9-5.6,12.1-5.6 c9.3,0,16,6.1,16,17.1v23.5h-10.1V77.5z"/>
		<path class="st0" d="M356.4,58.9c5.3,0,10.3,2.5,13.1,6.2v-19h10.3v53.5h-10.3v-5.9c-2.4,3.7-6.9,6.6-13.2,6.6 c-10.2,0-18.3-8.3-18.3-20.8S346.1,58.9,356.4,58.9z M358.9,67.8c-5.4,0-10.6,4-10.6,11.6c0,7.6,5.1,11.9,10.6,11.9 c5.6,0,10.6-4.2,10.6-11.8C369.5,72,364.5,67.8,358.9,67.8z"/>
		<path class="st0" d="M405,100.3c-10,0-17.1-5.9-17.5-13.3h10.2c0.4,3,3.2,5.3,7.2,5.3c4,0,6.1-1.8,6.1-4.1 c0-7.2-22.6-2.6-22.6-17.3c0-6.7,5.9-12,15.8-12c9.7,0,15.5,5.3,16.1,13.2h-9.7c-0.3-3.1-2.7-5.2-6.7-5.2c-3.8,0-5.7,1.5-5.7,3.8 c0,7.3,22.2,2.7,22.5,17.4C420.7,95.1,414.7,100.3,405,100.3z"/>
	</g>
</svg>
